<svg width="85" height="127" viewBox="0 0 85 127" fill="none" xmlns="http://www.w3.org/2000/svg">
<path d="M3.00388 30.9982C3.11845 29.4943 2.27735 5.62909 6.20392 5.39812C11.1458 5.10742 15.7475 6.99816 20.6928 6.99816C36.4502 6.99816 52.4919 4.34145 68.2483 3.79814C76.293 3.52075 76.6039 1.30732 76.6039 10.3759C76.6039 38.2863 75.2233 66.0693 75.0039 93.9315C74.9407 101.958 73.4039 109.749 73.4039 117.754C73.4039 120.513 71.9226 126.939 74.2928 122.198C76.1447 118.494 82.0736 107.205 81.7595 107.798C80.8875 109.445 75.0658 125.476 71.8039 121.398C68.453 117.209 64.5497 112.49 62.2039 107.798" stroke="#222646" stroke-width="5" strokeLinecap="round"/>
</svg>
