<svg width="29" height="29" viewBox="0 0 29 29" fill="none" xmlns="http://www.w3.org/2000/svg">
<rect x="0.526367" y="0.454224" width="28.4668" height="28.4668" rx="4" fill="#3360FF"/>
<g clip-path="url(#clip0_1246_9734)">
<path d="M14.7598 14.6876C16.7598 11.7276 14.7598 7.68762 13.7598 6.68762C13.7598 9.72562 11.9868 11.4286 10.7598 12.6876C9.53377 13.9476 8.75977 15.9276 8.75977 17.6876C8.75977 19.2789 9.39191 20.805 10.5171 21.9303C11.6423 23.0555 13.1685 23.6876 14.7598 23.6876C16.3511 23.6876 17.8772 23.0555 19.0024 21.9303C20.1276 20.805 20.7598 19.2789 20.7598 17.6876C20.7598 16.1556 19.7038 13.7476 18.7598 12.6876C16.9738 15.6876 15.9688 15.6876 14.7598 14.6876Z" stroke="white" strokeWidth="2" strokeLinecap="round" strokeLinejoin="round"/>
</g>
<defs>
<clipPath id="clip0_1246_9734">
<rect width="24" height="24" fill="white" transform="translate(2.75977 2.68762)"/>
</clipPath>
</defs>
</svg>
