<svg width="30" height="29" viewBox="0 0 30 29" fill="none" xmlns="http://www.w3.org/2000/svg">
<rect x="0.928711" y="0.454224" width="28.4668" height="28.4668" rx="4" fill="#3360FF"/>
<path d="M9.96216 13.6876C9.43627 14.5998 9.15967 15.6343 9.16016 16.6872C9.16064 17.7401 9.43819 18.7743 9.96493 19.686C10.4917 20.5977 11.249 21.3547 12.161 21.881C13.0729 22.4073 14.1072 22.6844 15.1602 22.6844C16.2131 22.6844 17.2474 22.4073 18.1594 21.881C19.0713 21.3547 19.8286 20.5977 20.3554 19.686C20.8821 18.7743 21.1597 17.7401 21.1602 16.6872C21.1606 15.6343 20.884 14.5998 20.3582 13.6876L15.1612 5.68762L9.96116 13.6876H9.96216Z" stroke="white" strokeWidth="2" stroke-linecap="round" stroke-linejoin="round"/>
</svg>
